<svg xmlns="http://www.w3.org/2000/svg" width="2398" height="1748" viewBox="0 0 2398 1748" fill="none" style="&#10;">
<g style="mix-blend-mode:screen" opacity="0.2">
<path opacity="0.0461538" d="M2347.5 874C2347.5 1108.25 2219 1320.36 2011.17 1473.93C1803.33 1627.5 1516.19 1722.5 1199 1722.5C881.808 1722.5 594.665 1627.5 386.831 1473.93C178.998 1320.36 50.5 1108.25 50.5 874C50.5 639.751 178.998 427.638 386.831 274.068C594.665 120.499 881.808 25.5 1199 25.5C1516.19 25.5 1803.33 120.499 2011.17 274.068C2219 427.638 2347.5 639.751 2347.5 874Z" stroke="white"/>
<path opacity="0.0923077" d="M2297.5 874C2297.5 1101.35 2174.6 1307.21 1975.81 1456.26C1777.03 1605.3 1502.38 1697.5 1199 1697.5C895.617 1697.5 620.975 1605.3 422.19 1456.26C223.404 1307.21 100.5 1101.35 100.5 874C100.5 646.651 223.404 440.788 422.19 291.744C620.975 142.7 895.617 50.5 1199 50.5C1502.38 50.5 1777.03 142.7 1975.81 291.744C2174.6 440.788 2297.5 646.651 2297.5 874Z" stroke="white"/>
<path opacity="0.138462" d="M2247.5 874C2247.5 1094.45 2130.19 1294.06 1940.45 1438.58C1750.72 1583.1 1488.57 1672.5 1199 1672.5C909.426 1672.5 647.285 1583.1 457.548 1438.58C267.811 1294.06 150.5 1094.45 150.5 874C150.5 653.552 267.811 453.938 457.548 309.419C647.285 164.901 909.426 75.5 1199 75.5C1488.57 75.5 1750.72 164.901 1940.45 309.419C2130.19 453.938 2247.5 653.552 2247.5 874Z" stroke="white"/>
<path opacity="0.184615" d="M2197.5 874C2197.5 1301.08 1750.58 1647.5 1199 1647.5C647.417 1647.5 200.5 1301.08 200.5 874C200.5 446.919 647.417 100.5 1199 100.5C1750.58 100.5 2197.5 446.919 2197.5 874Z" stroke="white"/>
<path opacity="0.230769" d="M2147.5 874C2147.5 1287.28 1722.96 1622.5 1199 1622.5C675.041 1622.5 250.5 1287.28 250.5 874C250.5 460.719 675.041 125.5 1199 125.5C1722.96 125.5 2147.5 460.719 2147.5 874Z" stroke="white"/>
<path opacity="0.276923" d="M2097.5 874C2097.5 1273.48 1695.33 1597.5 1199 1597.5C702.666 1597.5 300.5 1273.48 300.5 874C300.5 474.518 702.666 150.5 1199 150.5C1695.33 150.5 2097.5 474.518 2097.5 874Z" stroke="white"/>
<path opacity="0.323077" d="M2047.5 874C2047.5 1259.68 1667.71 1572.5 1199 1572.5C730.291 1572.5 350.5 1259.68 350.5 874C350.5 488.316 730.291 175.5 1199 175.5C1667.71 175.5 2047.5 488.316 2047.5 874Z" stroke="white"/>
<path opacity="0.369231" d="M1997.5 874C1997.5 1245.89 1640.08 1547.5 1199 1547.5C757.918 1547.5 400.5 1245.89 400.5 874C400.5 502.113 757.918 200.5 1199 200.5C1640.08 200.5 1997.5 502.113 1997.5 874Z" stroke="white"/>
<path opacity="0.415385" d="M1947.5 874C1947.5 1232.09 1612.45 1522.5 1199 1522.5C785.545 1522.5 450.5 1232.09 450.5 874C450.5 515.908 785.545 225.5 1199 225.5C1612.45 225.5 1947.5 515.908 1947.5 874Z" stroke="white"/>
<path opacity="0.461538" d="M1897.5 874C1897.5 1218.3 1584.83 1497.5 1199 1497.5C813.174 1497.5 500.5 1218.3 500.5 874C500.5 529.702 813.174 250.5 1199 250.5C1584.83 250.5 1897.5 529.702 1897.5 874Z" stroke="white"/>
<path opacity="0.507692" d="M1847.5 874C1847.5 1204.51 1557.2 1472.5 1199 1472.5C840.805 1472.5 550.5 1204.51 550.5 874C550.5 543.495 840.805 275.5 1199 275.5C1557.2 275.5 1847.5 543.495 1847.5 874Z" stroke="white"/>
<path opacity="0.553846" d="M1797.5 874C1797.5 1190.72 1529.56 1447.5 1199 1447.5C868.437 1447.5 600.5 1190.72 600.5 874C600.5 557.285 868.437 300.5 1199 300.5C1529.56 300.5 1797.5 557.285 1797.5 874Z" stroke="white"/>
<circle opacity="0.6" cx="1199" cy="874" r="548.5" stroke="white"/>
</g>
</svg>