<svg width="51" height="51" viewBox="0 0 51 51" fill="none" xmlns="http://www.w3.org/2000/svg">
<path d="M25.3333 0C18.6145 0 12.1709 2.66904 7.41996 7.41996C2.66904 12.1709 0 18.6145 0 25.3333C0 32.0522 2.66904 38.4958 7.41996 43.2467C12.1709 47.9976 18.6145 50.6667 25.3333 50.6667C32.0522 50.6667 38.4958 47.9976 43.2467 43.2467C47.9976 38.4958 50.6667 32.0522 50.6667 25.3333C50.6667 18.6145 47.9976 12.1709 43.2467 7.41996C38.4958 2.66904 32.0522 0 25.3333 0Z" fill="#039BE5"/>
<path d="M28.7621 32.049H35.3181L36.3474 25.389H28.7607V21.749C28.7607 18.9823 29.6647 16.529 32.2527 16.529H36.4114V10.717C35.6807 10.6183 34.1354 10.4023 31.2154 10.4023C25.1181 10.4023 21.5434 13.6223 21.5434 20.9583V25.389H15.2754V32.049H21.5434V50.3543C22.7847 50.541 24.0421 50.6677 25.3327 50.6677C26.4994 50.6677 27.6381 50.561 28.7621 50.409V32.049Z" fill="white"/>
</svg>
