<svg width="65" height="66" viewBox="0 0 65 66" fill="none" xmlns="http://www.w3.org/2000/svg">
<path d="M47 5H18C10.8203 5 5 10.8203 5 18V48C5 55.1797 10.8203 61 18 61H47C54.1797 61 60 55.1797 60 48V18C60 10.8203 54.1797 5 47 5Z" stroke="#19C283" stroke-width="10" stroke-linecap="round"/>
<path d="M48.68 5.37109H18C10.8203 5.37109 5 11.1914 5 18.3711V48.0003C5 55.18 10.8203 61.0003 18 61.0003H22.8533H48.68" stroke="#19C283" stroke-width="10" stroke-linecap="round"/>
<path d="M48.68 5H18C10.8203 5 5 10.8203 5 18V47.6292C5 54.8089 10.8203 60.6292 18 60.6292H26.84H48.68" stroke="#4BF6B6" stroke-width="10" stroke-linecap="round"/>
<path d="M48.68 5.37109H18C10.8203 5.37109 5 11.1914 5 18.3711V48.0003C5 55.18 10.8203 61.0003 18 61.0003H32.04H48.68" stroke="#4BF6B6" stroke-width="10" stroke-linecap="round"/>
<path d="M44 32.4043H21" stroke="#19C283" stroke-width="5" stroke-linecap="round"/>
<path d="M32.5957 21V44" stroke="#4BF6B6" stroke-width="5" stroke-linecap="round"/>
</svg>
